PathFileType	4	(X/Y/Z)	C:\Users\Basilio\Documents\Thesis Gigler\squatting_fais\c3dfiles\054\SLS_back_pre2\markers_experimental.trc
DataRate	CameraRate	NumFrames	NumMarkers	Units	OrigDataRate	OrigDataStartFrame	OrigNumFrames
200.000000	200.000000	4	61	mm	200.000000	959	1535
Frame#	Time	FHD			LBHD			RBHD			C7			T10			CLAV			LSHO			LUUPA			LMUPA			LDUPA			LLEP			LMEP			LRAD			LUL			LRFIN			RSHO			RUPA1			RMUPA			RDUPA			RLEP			RMEP			RRAD			RUL			RUFIN			LASI			RASI			USACR			LSACR			RSACR			LTHI1			LTHI2			LTHI3			LTHI4			LLFC			LMFC			LTIB1			LTIB2			LTIB3			LTIB4			LLMAL			LMMAL			LHEE			LMT1			LMT2			LMT5			RTHI			RTHI2			RTHI3			RTHI4			RLFC			RMFC			RTIB1			RTIB2			RTIB3			RTIB4			RLMAL			RMMAL			RHEE			RMT1			RMT2			RMT5			
		X1	Y1	Z1	X2	Y2	Z2	X3	Y3	Z3	X4	Y4	Z4	X5	Y5	Z5	X6	Y6	Z6	X7	Y7	Z7	X8	Y8	Z8	X9	Y9	Z9	X10	Y10	Z10	X11	Y11	Z11	X12	Y12	Z12	X13	Y13	Z13	X14	Y14	Z14	X15	Y15	Z15	X16	Y16	Z16	X17	Y17	Z17	X18	Y18	Z18	X19	Y19	Z19	X20	Y20	Z20	X21	Y21	Z21	X22	Y22	Z22	X23	Y23	Z23	X24	Y24	Z24	X25	Y25	Z25	X26	Y26	Z26	X27	Y27	Z27	X28	Y28	Z28	X29	Y29	Z29	X30	Y30	Z30	X31	Y31	Z31	X32	Y32	Z32	X33	Y33	Z33	X34	Y34	Z34	X35	Y35	Z35	X36	Y36	Z36	X37	Y37	Z37	X38	Y38	Z38	X39	Y39	Z39	X40	Y40	Z40	X41	Y41	Z41	X42	Y42	Z42	X43	Y43	Z43	X44	Y44	Z44	X45	Y45	Z45	X46	Y46	Z46	X47	Y47	Z47	X48	Y48	Z48	X49	Y49	Z49	X50	Y50	Z50	X51	Y51	Z51	X52	Y52	Z52	X53	Y53	Z53	X54	Y54	Z54	X55	Y55	Z55	X56	Y56	Z56	X57	Y57	Z57	X58	Y58	Z58	X59	Y59	Z59	X60	Y60	Z60	X61	Y61	Z61	

960	4.795	1.576672315597535	1413.812866210938	-1082.556640625	-160.8101501464844	1362.541259765625	-1152.584838867188	-177.0587615966797	1361.261108398438	-1012.841857910156	-219.8762207031251	1230.5634765625	-1067.973022460938	-397.672088623047	961.8281250000002	-1047.714233398438	-103.1849136352539	1125.817016601563	-1080.937866210938	-141.7203674316407	1219.495239257813	-1213.177978515625	-10.28544616699219	1104.176391601563	-1349.765014648438	24.21129226684571	1134.110961914063	-1333.891235351563	56.21494674682619	1092.1328125	-1362.119873046875	116.1527175903321	1092.00537109375	-1361.1630859375	113.3548202514649	1022.452514648438	-1320.56884765625	366.9355773925782	1100.930053710938	-1263.589111328125	387.7868957519532	1075.87548828125	-1333.928833007813	456.4382324218751	1129.404663085938	-1275.36572265625	-131.5666961669922	1215.02294921875	-942.7257080078127	11.78911113739014	1103.263427734375	-810.6607055664065	47.60519027709962	1132.6240234375	-823.079528808594	79.46392059326173	1086.0849609375	-798.9113769531252	124.7449188232422	1079.762573242188	-801.3707275390627	120.1373977661133	1021.392578125	-850.4647216796877	380.0065307617188	1131.296997070313	-930.2166748046877	387.7087402343751	1113.881103515625	-851.5568847656252	452.9326171875001	1167.47509765625	-926.1226806640627	-314.0897521972657	752.6252441406251	-1177.598999023438	-317.2680664062501	728.5627441406251	-925.601745605469	-446.716522216797	889.3359985351565	-1042.6640625	-470.1168518066407	866.8469848632815	-1071.92138671875	-464.6510314941407	860.7882080078127	-1014.4501953125	-316.1936340332032	591.3447265625001	-1253.011474609375	-234.9409179687501	565.8329467773439	-1243.911987304688	-207.2947082519532	603.0396728515626	-1236.791137695313	-212.9255676269532	511.8519287109376	-1228.506713867188	-113.7164001464844	422.3547973632814	-1187.081420898438	-94.81668090820314	452.7922363281251	-1052.822265625	-143.0675659179688	286.0957336425782	-1099.836669921875	-206.747787475586	256.4391174316407	-1153.90185546875	-177.418212890625	243.5180816650391	-1122.826293945313	-227.8178100585938	194.1629333496094	-1076.529052734375	-352.2304382324219	105.635238647461	-1104.3251953125	-318.7500610351563	131.6841888427735	-1013.013000488281	-426.5841369628907	102.1181640625	-1042.539916992188	-215.8879089355469	54.74641036987306	-1019.460327148438	-207.7803344726563	53.03158569335939	-1068.905029296875	-260.5727233886719	38.02038574218751	-1119.995483398438	-436.4177551269532	455.1439514160157	-840.6546020507815	-402.5193481445314	396.6784667968751	-840.9251708984377	-369.9741516113282	392.5758056640626	-848.6124267578127	-440.6992492675782	323.1967773437501	-856.4489746093752	-464.4642639160157	279.7987365722657	-861.762145996094	-425.3374938964845	244.5974578857422	-993.0634765625002	-551.7984008789064	214.8135070800782	-887.3689575195315	-626.6972656250001	287.6180419921876	-861.1960449218752	-633.2282104492189	243.691879272461	-874.9307250976565	-679.5712280273439	234.4689941406251	-908.4655761718752	-849.6253051757815	303.1504211425782	-903.5967407226565	-824.151062011719	276.4989318847657	-994.279968261719	-827.5987548828127	376.2236633300782	-949.7362060546877	-954.2891235351565	214.0167388916016	-1026.8154296875	-968.937927246094	200.8237915039063	-980.896667480469	-976.442321777344	245.7736968994141	-928.472595214844	
961	4.8	1.012119054794312	1415.376708984375	-1082.507568359375	-160.890380859375	1363.49560546875	-1152.618408203125	-177.4523315429688	1362.529907226563	-1012.891052246094	-220.2236785888672	1231.827514648438	-1068.061889648438	-397.8374633789064	962.977233886719	-1047.62890625	-103.5733795166016	1127.085693359375	-1080.873413085938	-142.0882873535157	1220.7666015625	-1213.132202148438	-10.60442543029785	1105.353393554688	-1349.6552734375	23.9323787689209	1135.441650390625	-1333.892333984375	56.6050262451172	1093.343383789063	-1362.148681640625	115.7238540649414	1093.452270507813	-1361.096435546875	113.0039520263672	1023.594421386719	-1320.531494140625	366.7010803222657	1102.465454101563	-1263.525268554688	388.2809143066407	1077.285278320313	-1333.9033203125	456.5103149414064	1130.703002929688	-1275.253173828125	-132.0460968017578	1216.287231445313	-942.5682373046877	11.38775444030762	1104.503295898438	-810.4165649414065	47.01999664306641	1133.83837890625	-822.9546508789065	78.8895950317383	1087.3603515625	-798.6250610351565	124.2959747314453	1080.981079101563	-801.0688476562502	119.9778442382813	1022.607666015625	-850.2175292968752	379.8171386718751	1132.536010742188	-929.9764404296877	387.1617431640626	1115.1796875	-851.4106445312502	452.2824707031251	1168.64111328125	-925.7795410156252	-314.0275878906251	753.7114257812501	-1177.31982421875	-317.3241882324219	729.5552368164064	-925.2706298828127	-446.6398315429689	890.2915649414065	-1042.70947265625	-470.6924438476564	868.1916503906252	-1071.747924804688	-464.551727294922	861.8327636718752	-1014.368591308594	-316.2525329589844	591.9792480468751	-1252.580444335938	-235.0738830566407	566.2379150390626	-1243.713623046875	-207.2501220703126	603.4837036132814	-1236.607299804688	-213.0208740234376	512.2952880859376	-1228.249633789063	-114.0991592407227	422.686492919922	-1186.848266601563	-94.90225982666017	452.9661560058595	-1052.681884765625	-143.2579498291016	286.2384338378907	-1099.578125	-206.7672424316407	256.6251525878907	-1153.681640625	-177.4143981933594	243.5836944580079	-1122.588012695313	-227.8316040039063	194.2658233642579	-1076.405029296875	-352.2212524414063	105.651725769043	-1104.255615234375	-318.7569580078126	131.7549133300782	-1012.942993164063	-426.5881958007814	102.123161315918	-1042.54541015625	-215.8940429687501	54.70843887329103	-1019.427551269531	-208.0711517333985	53.14336013793947	-1069.110961914063	-260.4244995117188	38.1747055053711	-1119.979125976563	-435.9012451171876	456.1004333496095	-840.6035766601565	-401.7286376953126	397.6165771484376	-840.9116821289065	-369.0766906738282	393.6250610351564	-848.5378417968752	-439.849822998047	324.2386474609376	-856.434265136719	-463.5757446289064	280.8028564453126	-861.8667602539065	-424.271697998047	245.6647644042969	-993.1678466796877	-550.6247558593751	215.8097381591797	-887.3264160156252	-625.6107788085939	288.0773315429688	-861.3984985351565	-632.5424804687501	244.3308410644532	-874.8228759765627	-678.9013061523439	234.9994354248047	-908.5115966796877	-848.9720458984377	303.4807739257813	-903.7639770507815	-823.1450805664065	276.8464050292969	-994.307312011719	-826.9763183593752	376.4657592773438	-949.7921142578127	-953.2535400390627	214.3600311279297	-1027.136962890625	-967.6464843750002	201.0300598144532	-981.541198730469	-975.5061645507815	245.9160919189454	-928.7827758789065	
962	4.805	0.6029706597328187	1416.6220703125	-1082.6123046875	-161.6706237792969	1365.030517578125	-1152.591674804688	-178.1293487548828	1363.720092773438	-1012.839172363281	-220.4747467041016	1232.79296875	-1068.0888671875	-397.972625732422	963.9151000976565	-1047.635620117188	-103.7295913696289	1128.400634765625	-1080.70166015625	-142.5788726806641	1222.071166992188	-1213.130004882813	-10.84619617462158	1106.863525390625	-1349.659423828125	24.09616470336915	1136.731811523438	-1333.77734375	55.88158035278322	1094.691650390625	-1361.907592773438	115.4666137695313	1094.807495117188	-1361.050048828125	112.81201171875	1025.078735351563	-1320.6357421875	366.4351806640626	1103.957153320313	-1263.42822265625	387.168914794922	1078.822021484375	-1333.660278320313	455.7822875976564	1132.405883789063	-1275.056518554688	-132.5335540771485	1217.64111328125	-942.5274658203127	11.07251453399658	1105.813110351563	-810.3248291015627	46.81439971923829	1135.142822265625	-822.8273925781252	78.38308715820314	1088.842895507813	-798.5608520507815	123.8890991210938	1082.288208007813	-800.9250488281252	119.4557189941407	1023.811462402344	-850.1856689453127	379.1845703125001	1133.858642578125	-929.8763427734377	386.9031372070314	1116.498046875	-851.249938964844	451.9035949707032	1170.082397460938	-925.5828247070315	-313.9415893554688	754.7803955078126	-1177.073364257813	-317.0242919921876	730.9690551757814	-925.2342529296877	-446.6348876953126	891.353698730469	-1042.901000976563	-470.5301818847657	868.8197021484377	-1071.699829101563	-464.6019592285157	862.9329833984377	-1014.43115234375	-316.1882324218751	592.7823486328126	-1252.35693359375	-235.1028137207032	566.7013549804689	-1243.55029296875	-207.2811279296876	603.8996582031251	-1236.408569335938	-213.1540985107422	512.7384643554689	-1227.975219726563	-114.4209365844727	422.9262084960939	-1186.592407226563	-95.25742340087892	453.157440185547	-1052.351928710938	-143.3142852783203	286.4667663574219	-1099.411010742188	-206.8080749511719	256.8800354003907	-1153.511596679688	-177.4180908203125	243.7021789550782	-1122.3955078125	-227.9025268554688	194.3775482177735	-1076.282836914063	-352.1416625976563	105.7093887329102	-1104.227416992188	-318.7528686523438	131.759506225586	-1012.884033203125	-426.5907287597657	102.1192092895508	-1042.49951171875	-216.0355529785157	54.73822402954103	-1019.444946289063	-208.0837554931641	53.06632614135744	-1069.08935546875	-260.4129028320313	38.24181365966798	-1119.987548828125	-435.3414306640626	457.0673217773439	-840.6304321289065	-401.0411682128907	398.6493530273439	-840.9891357421877	-368.2551879882813	394.6051025390626	-848.4930419921877	-438.9404907226564	325.2073364257813	-856.6506347656252	-462.458221435547	281.6833496093751	-861.9598388671877	-422.940887451172	246.6563720703126	-993.320495605469	-549.4747924804689	216.5094146728516	-887.5296020507815	-624.9125366210939	288.9624023437501	-861.4436645507815	-631.4999389648439	245.0265502929688	-875.238708496094	-677.8313598632814	235.6733856201172	-908.704528808594	-847.6856689453127	303.6559448242188	-904.079284667969	-822.1862792968752	277.2813720703126	-994.4113769531252	-825.9290161132815	376.6456604003907	-950.1882324218752	-952.0019531250002	214.5222167968751	-1027.613891601563	-966.6466064453127	201.2232971191407	-981.6827392578127	-974.5634765625002	245.9605865478516	-929.1773681640627	
963	4.81	0.08732762932777406	1418.310546875	-1082.61474609375	-162.1402435302735	1366.139892578125	-1152.55712890625	-178.6957092285157	1365.174682617188	-1012.941284179688	-220.8321533203126	1234.0556640625	-1068.044067382813	-398.0991210937501	965.1052856445315	-1047.624389648438	-104.4056625366211	1129.710815429688	-1080.755615234375	-142.5728759765625	1223.306030273438	-1213.533447265625	-11.50565528869629	1107.81689453125	-1349.537719726563	23.18639183044434	1138.2890625	-1333.833618164063	55.36945724487306	1096.250244140625	-1361.961669921875	115.1596145629883	1096.244750976563	-1360.923828125	112.40087890625	1026.56103515625	-1320.3056640625	365.8354492187501	1105.579467773438	-1263.240966796875	386.908660888672	1080.588500976563	-1333.498779296875	455.4893798828126	1133.955078125	-1274.951293945313	-133.079833984375	1218.7646484375	-942.431335449219	10.39865875244141	1107.172607421875	-810.0986938476565	46.3176383972168	1136.532836914063	-822.6679687500002	78.08082580566408	1089.898071289063	-798.4984130859377	123.4520339965821	1083.358276367188	-800.7615966796877	118.8753509521485	1025.186645507813	-849.7605590820315	378.4888610839844	1135.062255859375	-929.501159667969	386.1065979003907	1117.806274414063	-850.740661621094	451.4975585937501	1171.245971679688	-925.2671508789065	-313.7832641601563	755.4980468750001	-1177.00439453125	-317.1294860839844	732.1300048828126	-925.129577636719	-446.7722778320314	892.1382446289065	-1042.73095703125	-470.4170227050782	869.7834472656252	-1071.712158203125	-464.8039550781251	863.9509277343752	-1014.317443847656	-315.7249145507813	593.2791137695314	-1251.940673828125	-235.1451568603516	567.2243652343751	-1243.2314453125	-207.2911834716797	604.3850097656251	-1236.209228515625	-213.2837829589844	513.2202148437501	-1227.6982421875	-114.7254333496094	423.1773986816407	-1186.348999023438	-95.47460174560548	453.373016357422	-1051.998413085938	-143.7301940917969	286.7550659179688	-1099.12255859375	-206.8549804687501	257.0679321289063	-1153.315673828125	-177.4282379150391	243.8303833007813	-1122.2783203125	-227.9333801269532	194.3834991455079	-1076.14013671875	-352.1340332031251	105.8082275390625	-1104.217163085938	-318.7687072753907	131.7801055908203	-1012.841247558594	-426.575897216797	102.1357727050782	-1042.495239257813	-216.0321655273438	54.70239639282228	-1019.438354492188	-207.7126617431641	53.08718872070314	-1068.849975585938	-260.4011840820313	38.27708435058594	-1119.977172851563	-434.6457519531251	458.0022277832032	-840.5066528320315	-400.220672607422	399.7836303710939	-840.953063964844	-367.4580078125001	395.8215637207032	-848.5330810546877	-438.1895446777345	326.0770263671876	-856.6079101562502	-461.4977111816407	282.5660095214844	-862.0899658203127	-422.0908508300782	247.8249969482422	-993.5035400390627	-548.8333740234376	217.3238677978516	-887.7046508789065	-623.9717407226564	289.4880371093751	-861.669372558594	-630.3832397460939	245.6196594238282	-875.372985839844	-676.5082397460939	236.2224426269532	-909.1093750000002	-846.732116699219	303.8274230957032	-904.3883056640627	-821.170593261719	277.6790771484376	-994.5050048828127	-825.0862426757815	377.0387573242188	-950.2204589843752	-950.889587402344	214.9233551025391	-1027.892700195313	-965.7256469726565	201.4301300048829	-982.3214111328127	-973.4053344726565	246.0488739013672	-929.534362792969	
